<svg width="206.169921875px" height="119.6px" xmlns="http://www.w3.org/2000/svg" viewBox="146.9150390625 15.200000000000003 206.169921875 119.6" style="background: rgba(0, 0, 0, 0);" preserveAspectRatio="xMidYMid"><defs><filter id="editing-hole" x="-100%" y="-100%" width="300%" height="300%"><feFlood flood-color="#000000" result="black"></feFlood><feMorphology operator="dilate" radius="2" in="SourceGraphic" result="erode"></feMorphology><feGaussianBlur in="erode" stdDeviation="4" result="blur"></feGaussianBlur><feOffset in="blur" dx="2" dy="2" result="offset"></feOffset><feComposite operator="atop" in="offset" in2="black" result="merge"></feComposite><feComposite operator="in" in="merge" in2="SourceGraphic" result="inner-shadow"></feComposite></filter></defs><g filter="url(#editing-hole)"><g transform="translate(183.74100494384766, 98.76436042785645)"><path d="M-1.06-3.19L8.88-42.19L5.53-41.78L5.53-41.78Q4.31-41.78 4.53-43.25L4.53-43.25L4.78-45.06L4.78-45.06Q4.97-46.03 5.88-46.28L5.88-46.28L5.88-46.28Q8.41-46.84 14.05-46.75L14.05-46.75L14.05-46.75Q19.69-46.66 23.08-43.20L23.08-43.20L23.08-43.20Q26.47-39.75 26.72-33.06L26.72-33.06L26.72-33.06Q26.97-26.38 24.55-18.34L24.55-18.34L24.55-18.34Q22.13-10.31 17.73-5.06L17.73-5.06L17.73-5.06Q13.34 0.19 6.31 0.25L6.31 0.25L6.31 0.25Q2.84 0.25 0.55-0.09L0.55-0.09L0.55-0.09Q-1.75-0.44-1.06-3.19L-1.06-3.19ZM14.13-42.31L14.13-42.31L4.38-4.28L4.38-4.28Q4.97-4.22 7.34-4.22L7.34-4.22L7.34-4.22Q11.38-4.22 14.77-8.86L14.77-8.86L14.77-8.86Q18.16-13.50 19.97-20.19L19.97-20.19L19.97-20.19Q21.78-26.88 21.89-31.52L21.89-31.52L21.89-31.52Q22-36.16 20.17-39.20L20.17-39.20L20.17-39.20Q18.34-42.25 14.13-42.31ZM30.81-8.84L30.81-8.84L30.81-8.84Q29.94-4.16 32.56-3.66L32.56-3.66L32.56-3.66Q34.91-4.53 38.38-8.44L38.38-8.44L38.38-8.44Q38.97-8.97 39.66-8.56L39.66-8.56L40.88-7.81L40.88-7.81Q41.72-7.16 41.44-6.41L41.44-6.41L41.44-6.41Q40.22-4.09 36.94-1.50L36.94-1.50L36.94-1.50Q33.66 1.09 31.66 0.72L31.66 0.72L31.66 0.72Q27.13-0.44 26.34-4.03L26.34-4.03L26.34-4.03Q25.44-8.84 27.94-17.25L27.94-17.25L27.94-17.25Q30.44-25.66 34.91-29.94L34.91-29.94L34.91-29.94Q36.47-31.38 38.80-32.08L38.80-32.08L38.80-32.08Q41.13-32.78 43.72-31.69L43.72-31.69L43.72-31.69Q46.31-30.59 46.28-25.44L46.28-25.44L46.28-25.44Q46.25-20.28 41.77-15.70L41.77-15.70L41.77-15.70Q37.28-11.13 30.81-8.84ZM31.59-13L31.59-13L31.59-13Q34.59-14.28 36.73-16L36.73-16L36.73-16Q38.88-17.72 40.27-20.19L40.27-20.19L40.27-20.19Q41.66-22.66 41.66-25.25L41.66-25.25L41.66-25.25Q41.66-27.84 40.16-27.84L40.16-27.84L40.16-27.84Q37.22-27.84 35.02-23.05L35.02-23.05L35.02-23.05Q32.81-18.25 31.59-13ZM59.13-30.66L54.31-14.53L60.97-25.53L60.97-25.53Q63.09-29 65.33-30.75L65.33-30.75L65.33-30.75Q67.56-32.50 69.16-32.50L69.16-32.50L70.50-32.50L70.50-32.50Q71.53-32.50 72.11-32.16L72.11-32.16L72.11-32.16Q72.69-31.81 73.05-30.59L73.05-30.59L73.05-30.59Q73.41-29.38 72.69-27L72.69-27L65.53-0.91L65.53-0.91Q65.34 0 64.50 0L64.50 0L61.16 0L61.16 0Q60.22 0 60.66-1.53L60.66-1.53L67.38-23.50L67.38-23.50Q67.88-25.22 67.88-25.77L67.88-25.77L67.88-25.77Q67.88-26.31 67.44-26.31L67.44-26.31L67.44-26.31Q67-26.31 66.39-25.73L66.39-25.73L66.39-25.73Q65.78-25.16 64.75-23.63L64.75-23.63L64.75-23.63Q63.53-21.88 61.81-19.09L61.81-19.09L61.81-19.09Q60.09-16.31 57.47-12.22L57.47-12.22L57.47-12.22Q52.53-4.69 50.47-0.91L50.47-0.91L50.47-0.91Q49.97 0 48.94 0L48.94 0L47.16 0L47.16 0Q46.78 0 46.52-0.52L46.52-0.52L46.52-0.52Q46.25-1.03 46.44-1.66L46.44-1.66L54.19-30.84L54.19-30.84Q54.50-32.50 55.47-32.50L55.47-32.50L58.09-32.50L58.09-32.50Q59.63-32.50 59.13-30.66L59.13-30.66ZM86.19-30.66L81.38-14.53L88.03-25.53L88.03-25.53Q90.16-29 92.39-30.75L92.39-30.75L92.39-30.75Q94.63-32.50 96.22-32.50L96.22-32.50L97.56-32.50L97.56-32.50Q98.59-32.50 99.17-32.16L99.17-32.16L99.17-32.16Q99.75-31.81 100.11-30.59L100.11-30.59L100.11-30.59Q100.47-29.38 99.75-27L99.75-27L92.59-0.91L92.59-0.91Q92.41 0 91.56 0L91.56 0L88.22 0L88.22 0Q87.28 0 87.72-1.53L87.72-1.53L94.44-23.50L94.44-23.50Q94.94-25.22 94.94-25.77L94.94-25.77L94.94-25.77Q94.94-26.31 94.50-26.31L94.50-26.31L94.50-26.31Q94.06-26.31 93.45-25.73L93.45-25.73L93.45-25.73Q92.84-25.16 91.81-23.63L91.81-23.63L91.81-23.63Q90.59-21.88 88.88-19.09L88.88-19.09L88.88-19.09Q87.16-16.31 84.53-12.22L84.53-12.22L84.53-12.22Q79.59-4.69 77.53-0.91L77.53-0.91L77.53-0.91Q77.03 0 76 0L76 0L74.22 0L74.22 0Q73.84 0 73.58-0.52L73.58-0.52L73.58-0.52Q73.31-1.03 73.50-1.66L73.50-1.66L81.25-30.84L81.25-30.84Q81.56-32.50 82.53-32.50L82.53-32.50L85.16-32.50L85.16-32.50Q86.69-32.50 86.19-30.66L86.19-30.66ZM111.50-42.25L111.50-42.25L112.09-42.25L112.09-42.25Q113.16-42.25 114.06-41.28L114.06-41.28L114.06-41.28Q114.97-40.31 114.97-39.06L114.97-39.06L114.97-39.06Q114.97-37.81 114.03-36.92L114.03-36.92L114.03-36.92Q113.09-36.03 111.69-36.03L111.69-36.03L111.19-36.03L111.19-36.03Q110.09-36.03 109.23-36.95L109.23-36.95L109.23-36.95Q108.38-37.88 108.38-39.13L108.38-39.13L108.38-39.13Q108.38-40.38 109.27-41.31L109.27-41.31L109.27-41.31Q110.16-42.25 111.50-42.25ZM112.66-31.16L112.66-31.16L104.91-1.41L104.91-1.41Q104.53 0 103 0L103 0L101.13 0L101.13 0Q99.34 0 99.72-1.47L99.72-1.47L107.53-31.22L107.53-31.22Q107.84-32.50 109.31-32.50L109.31-32.50L111.44-32.50L111.44-32.50Q112.28-32.50 112.56-32.22L112.56-32.22L112.56-32.22Q112.84-31.94 112.66-31.16ZM125.31-32.91L125.31-32.91L126.28-32.91L126.28-32.91Q128.47-32.91 130.31-31.23L130.31-31.23L130.31-31.23Q132.16-29.56 133.31-27.13L133.31-27.13L133.31-27.13Q133.97-25.78 132.88-25.09L132.88-25.09L130.94-24L130.94-24Q129.59-23.03 129.03-24.31L129.03-24.31L129.03-24.31Q128.97-24.44 128.52-25.50L128.52-25.50L128.52-25.50Q128.06-26.56 127.78-27.02L127.78-27.02L127.78-27.02Q127.50-27.47 126.80-28.03L126.80-28.03L126.80-28.03Q126.09-28.59 125.19-28.75L125.19-28.75L125.19-28.75Q123.59-28.41 122.19-26.63L122.19-26.63L122.19-26.63Q120.78-24.84 120.78-21.56L120.78-21.56L120.78-21.56Q120.78-20.16 121.45-19.61L121.45-19.61L121.45-19.61Q122.13-19.06 123.84-18.69L123.84-18.69L125.63-18.31L125.63-18.31Q129.53-17.47 129.53-11.84L129.53-11.84L129.53-11.84Q129.53-8.50 127.03-4.16L127.03-4.16L127.03-4.16Q125.84-2.13 123.78-0.70L123.78-0.70L123.78-0.70Q121.72 0.72 119.31 0.72L119.31 0.72L118.84 0.72L118.84 0.72Q116.41 0.72 114.50-0.98L114.50-0.98L114.50-0.98Q112.59-2.69 111.81-4.45L111.81-4.45L111.81-4.45Q111.03-6.22 111.81-7.09L111.81-7.09L113.22-8.25L113.22-8.25Q113.88-8.91 114.64-8.84L114.64-8.84L114.64-8.84Q115.41-8.78 115.69-7.72L115.69-7.72L115.69-7.72Q115.97-6.66 117.25-5.16L117.25-5.16L117.25-5.16Q118.53-3.66 119.63-3.59L119.63-3.59L119.63-3.59Q121.53-3.91 122.94-5.86L122.94-5.86L122.94-5.86Q124.34-7.81 124.34-10.34L124.34-10.34L124.34-10.34Q124.34-12.88 123.88-13.58L123.88-13.58L123.88-13.58Q123.41-14.28 121.72-14.66L121.72-14.66L120.31-14.97L120.31-14.97Q117.84-15.56 116.81-17.03L116.81-17.03L116.81-17.03Q115.78-18.50 115.78-21L115.78-21L115.78-21Q115.78-25.16 118.75-29.03L118.75-29.03L118.75-29.03Q121.72-32.91 125.31-32.91Z" fill="#ccc"></path></g></g><style>text {
  font-size: 64px;
  font-family: Arial Black;
  dominant-baseline: central;
  text-anchor: middle;
}</style></svg>